<?xml version="1.0" standalone="no"?>
<!DOCTYPE svg PUBLIC "-//W3C//DTD SVG 20010904//EN"
 "http://www.w3.org/TR/2001/REC-SVG-20010904/DTD/svg10.dtd">
<svg version="1.0" xmlns="http://www.w3.org/2000/svg"
 width="600.000000pt" height="600.000000pt" viewBox="0 0 600.000000 600.000000"
 preserveAspectRatio="xMidYMid meet">
<metadata>
Created by potrace 1.11, written by Peter Selinger 2001-2013
</metadata>
<g transform="translate(0.000000,600.000000) scale(0.100000,-0.100000)"
fill="#000000" stroke="none">
<path d="M1937 5954 c-1 -1 -45 -4 -97 -8 -52 -3 -106 -8 -120 -11 -14 -2 -45
-6 -70 -9 -25 -3 -55 -8 -66 -10 -12 -2 -39 -7 -60 -10 -57 -9 -226 -53 -324
-83 -47 -15 -87 -27 -90 -28 -3 -1 -14 -5 -25 -10 -11 -4 -65 -25 -120 -47
-117 -46 -286 -130 -388 -192 -77 -47 -176 -110 -192 -123 -6 -4 -46 -35 -90
-67 -91 -68 -135 -106 -135 -116 0 -4 133 -141 296 -304 293 -293 297 -296
318 -279 12 10 23 21 26 24 21 23 237 156 335 206 154 78 379 158 499 178 17
3 38 8 46 10 8 2 38 7 65 11 28 3 71 9 96 13 25 4 55 4 65 0 10 -4 436 -425
946 -936 509 -510 940 -941 956 -956 l30 -29 296 296 c163 163 296 298 296
300 0 3 -490 495 -1090 1094 l-1089 1088 -156 0 c-86 0 -157 -1 -158 -2z"/>
<path d="M3500 5658 c-162 -164 -296 -299 -297 -301 -1 -1 132 -137 296 -301
l297 -297 175 173 c96 96 179 173 184 173 40 -4 177 -23 215 -30 130 -26 212
-49 333 -94 229 -85 495 -243 657 -391 19 -18 46 -42 60 -54 97 -85 254 -277
339 -414 62 -100 131 -231 131 -247 0 -8 3 -15 8 -17 8 -3 30 -59 73 -183 l28
-80 0 777 c1 642 -1 779 -13 790 -50 49 -106 97 -192 163 -55 42 -106 82 -114
88 -20 16 -164 108 -231 147 -205 122 -527 254 -745 305 -38 9 -77 18 -86 21
-40 9 -66 15 -118 24 -30 5 -64 11 -75 13 -11 3 -47 8 -80 11 -33 4 -82 9
-110 12 -27 3 -138 7 -245 8 l-195 2 -295 -298z"/>
<path d="M0 4447 l0 -599 335 -335 c185 -184 338 -334 340 -332 2 2 137 137
300 299 l296 294 -636 636 -635 635 0 -598z"/>
<path d="M1272 3431 l-980 -979 48 -121 c58 -143 112 -246 190 -362 69 -103
78 -115 192 -243 10 -11 20 -18 23 -15 12 10 2088 2085 2096 2095 6 8 -85 106
-287 308 -163 163 -298 296 -299 296 -2 0 -444 -441 -983 -979z"/>
<path d="M4252 3247 l-1053 -1053 281 -282 c155 -154 290 -288 300 -297 17
-16 72 37 998 963 l981 981 -18 45 c-9 25 -20 48 -24 52 -4 4 -7 13 -7 21 0
13 -107 238 -132 278 -76 118 -134 200 -175 243 -7 7 -29 33 -49 57 -20 25
-39 45 -43 45 -3 0 -480 -474 -1059 -1053z"/>
<path d="M0 3449 c0 -61 6 -62 15 -2 3 24 2 44 -5 48 -6 4 -10 -13 -10 -46z"/>
<path d="M1916 2535 c-163 -163 -296 -298 -296 -301 0 -2 491 -494 1090 -1093
l1091 -1090 192 4 c106 2 215 6 242 9 62 5 145 15 171 20 109 20 171 30 182
29 6 0 12 3 12 9 0 5 4 7 9 4 20 -13 338 86 511 159 251 105 555 291 747 456
l33 28 -301 301 -301 300 -41 -33 c-59 -48 -162 -118 -227 -154 -68 -38 -209
-112 -215 -112 -3 -1 -20 -7 -38 -14 -155 -65 -395 -128 -542 -142 -27 -3 -59
-7 -70 -9 -15 -3 -244 220 -983 958 -530 528 -964 962 -966 964 -2 2 -137
-130 -300 -293z"/>
<path d="M5077 2532 l-297 -298 605 -604 c333 -333 608 -607 610 -609 3 -2 5
264 5 592 l0 596 -311 310 c-171 171 -311 311 -312 311 -1 0 -136 -134 -300
-298z"/>
<path d="M1 1766 l-1 -859 38 -36 c268 -253 583 -458 917 -596 84 -35 241 -92
275 -100 8 -2 49 -12 90 -23 41 -12 86 -23 100 -26 112 -23 190 -37 215 -41
17 -2 50 -6 75 -10 99 -13 143 -15 337 -20 l202 -4 301 301 302 301 -143 144
c-249 250 -447 445 -453 447 -3 0 -82 -75 -175 -168 -170 -169 -170 -169 -213
-168 -24 1 -54 4 -68 7 -14 3 -45 8 -70 11 -25 3 -72 12 -105 20 -33 8 -70 17
-83 20 -13 2 -58 16 -100 30 -346 114 -634 293 -878 545 -122 127 -194 222
-319 424 -26 41 -78 150 -129 268 -27 63 -78 229 -100 327 -13 59 -14 -20 -15
-794z"/>
</g>
</svg>
